<svg width="25" height="26" viewBox="0 0 25 26" fill="none" xmlns="http://www.w3.org/2000/svg">
<path d="M23.75 12.1421H19.7875L22.9625 8.96709C23.0784 8.85145 23.1703 8.71409 23.233 8.56287C23.2958 8.41165 23.3281 8.24955 23.3281 8.08584C23.3281 7.92213 23.2958 7.76003 23.233 7.60881C23.1703 7.45759 23.0784 7.32023 22.9625 7.20459C22.475 6.71709 21.675 6.71709 21.1875 7.20459L16.25 12.1421H13.75V9.64209L18.6875 4.70459C19.175 4.21709 19.175 3.41709 18.6875 2.92959C18.5719 2.81371 18.4345 2.72178 18.2833 2.65905C18.1321 2.59632 17.97 2.56403 17.8063 2.56403C17.6425 2.56403 17.4804 2.59632 17.3292 2.65905C17.178 2.72178 17.0406 2.81371 16.925 2.92959L13.75 6.10459V2.14209C13.75 1.45459 13.1875 0.89209 12.5 0.89209C11.8125 0.89209 11.25 1.45459 11.25 2.14209V6.10459L8.075 2.92959C7.95936 2.81371 7.822 2.72178 7.67078 2.65905C7.51956 2.59632 7.35746 2.56403 7.19375 2.56403C7.03004 2.56403 6.86794 2.59632 6.71672 2.65905C6.5655 2.72178 6.42814 2.81371 6.3125 2.92959C5.825 3.41709 5.825 4.21709 6.3125 4.70459L11.25 9.64209V12.1421H8.75L3.8125 7.20459C3.325 6.71709 2.525 6.71709 2.0375 7.20459C1.92162 7.32023 1.82969 7.45759 1.76696 7.60881C1.70423 7.76003 1.67194 7.92213 1.67194 8.08584C1.67194 8.24955 1.70423 8.41165 1.76696 8.56287C1.82969 8.71409 1.92162 8.85145 2.0375 8.96709L5.2125 12.1421H1.25C0.5625 12.1421 0 12.7046 0 13.3921C0 14.0796 0.5625 14.6421 1.25 14.6421H5.2125L2.0375 17.8171C1.92162 17.9327 1.82969 18.0701 1.76696 18.2213C1.70423 18.3725 1.67194 18.5346 1.67194 18.6983C1.67194 18.8621 1.70423 19.0242 1.76696 19.1754C1.82969 19.3266 1.92162 19.4639 2.0375 19.5796C2.525 20.0671 3.325 20.0671 3.8125 19.5796L8.75 14.6421H11.25V17.1421L6.3125 22.0796C5.825 22.5671 5.825 23.3671 6.3125 23.8546C6.8 24.3421 7.5875 24.3421 8.075 23.8546L11.25 20.6796V24.6421C11.25 25.3296 11.8125 25.8921 12.5 25.8921C13.1875 25.8921 13.75 25.3296 13.75 24.6421V20.6796L16.925 23.8546C17.4125 24.3421 18.2 24.3421 18.6875 23.8546C19.175 23.3671 19.175 22.5671 18.6875 22.0796L13.75 17.1421V14.6421H16.25L21.1875 19.5796C21.675 20.0671 22.475 20.0671 22.9625 19.5796C23.0784 19.4639 23.1703 19.3266 23.233 19.1754C23.2958 19.0242 23.3281 18.8621 23.3281 18.6983C23.3281 18.5346 23.2958 18.3725 23.233 18.2213C23.1703 18.0701 23.0784 17.9327 22.9625 17.8171L19.7875 14.6421H23.75C24.4375 14.6421 25 14.0796 25 13.3921C25 12.7046 24.4375 12.1421 23.75 12.1421Z" fill="black"/>
</svg>
