<svg width="28" height="28" viewBox="0 0 28 28" fill="none" xmlns="http://www.w3.org/2000/svg">
<path d="M27.1247 2.94146H24.9525C24.7784 2.94147 24.6115 3.01267 24.4885 3.1394L22.3187 5.37354L21.7003 4.7367L24.1905 2.17252C24.2726 2.0883 24.3838 2.04085 24.4997 2.04046H27.1247C27.2987 2.04046 27.4656 1.96927 27.5887 1.84254C27.7118 1.71581 27.7809 1.54393 27.7809 1.36471C27.7809 1.18549 27.7118 1.01361 27.5887 0.886887C27.4656 0.76016 27.2987 0.688965 27.1247 0.688965H24.4997C24.0358 0.690387 23.5913 0.880082 23.2624 1.21689L20.7718 3.78142C20.2809 3.30175 19.7878 3.81053 19.4532 4.19909C18.0658 3.41894 16.4952 3.05133 14.9166 3.13732C13.338 3.22331 11.8138 3.75951 10.5141 4.68602C10.2289 4.30726 9.72509 4.01872 9.33353 4.42603L7.47738 6.3371C7.41644 6.39985 7.36809 6.47435 7.33511 6.55634C7.30213 6.63832 7.28516 6.7262 7.28516 6.81494C7.28516 6.90369 7.30213 6.99156 7.33511 7.07355C7.36809 7.15554 7.41644 7.23003 7.47738 7.29278L19.8517 20.035C19.9753 20.1608 20.142 20.2314 20.3158 20.2314C20.4895 20.2314 20.6562 20.1608 20.7798 20.035L22.636 18.1237C23.0316 17.7203 22.7513 17.2019 22.3837 16.9082C23.2836 15.5699 23.8044 14.0003 23.8879 12.3747C23.9714 10.7491 23.6143 9.13167 22.8566 7.70302L23.2547 7.29301C23.3778 7.16628 23.4469 6.99441 23.4469 6.8152C23.4469 6.63598 23.3778 6.46411 23.2547 6.33738L23.2468 6.32922L25.2243 4.29296H27.1247C27.2987 4.29296 27.4656 4.22177 27.5887 4.09504C27.7118 3.96831 27.7809 3.79643 27.7809 3.61721C27.7809 3.43799 27.7118 3.26611 27.5887 3.13938C27.4656 3.01266 27.2987 2.94146 27.1247 2.94146ZM20.3158 18.6016L8.86967 6.81536L9.79772 5.85969L21.2438 17.6459L20.3158 18.6016ZM21.4372 15.9337L11.4605 5.66057C12.6142 4.89494 13.9561 4.48424 15.3286 4.47672C16.7012 4.4692 18.0473 4.86517 19.2088 5.61811C19.3348 5.69983 19.4839 5.73503 19.6319 5.71794C19.7798 5.70085 19.9177 5.63249 20.0229 5.52406L20.3157 5.22229L21.8626 6.8152L21.5698 7.11675C21.4646 7.22509 21.3983 7.36703 21.3817 7.51929C21.3651 7.67155 21.3993 7.8251 21.4786 7.95473C22.2098 9.15087 22.5943 10.5371 22.587 11.9504C22.5797 13.3638 22.1808 14.7457 21.4372 15.9337Z" fill="#444444"/>
<path d="M12.2729 15.7733C12.6354 15.7733 12.9292 15.4707 12.9292 15.0975C12.9292 14.7242 12.6354 14.4217 12.2729 14.4217C11.9105 14.4217 11.6167 14.7242 11.6167 15.0975C11.6167 15.4707 11.9105 15.7733 12.2729 15.7733Z" fill="#444444"/>
<path d="M14.2832 17.8439C14.6457 17.8439 14.9395 17.5413 14.9395 17.1681C14.9395 16.7949 14.6457 16.4923 14.2832 16.4923C13.9208 16.4923 13.627 16.7949 13.627 17.1681C13.627 17.5413 13.9208 17.8439 14.2832 17.8439Z" fill="#444444"/>
<path d="M15.8304 18.7609C15.7386 18.8554 15.6761 18.9758 15.6508 19.1069C15.6255 19.2379 15.6385 19.3738 15.6881 19.4973C15.7378 19.6208 15.8219 19.7263 15.9298 19.8005C16.0378 19.8748 16.1646 19.9144 16.2944 19.9144C16.4242 19.9144 16.5511 19.8748 16.659 19.8005C16.767 19.7263 16.8511 19.6208 16.9007 19.4973C16.9504 19.3738 16.9634 19.2379 16.9381 19.1069C16.9128 18.9758 16.8503 18.8554 16.7585 18.7609C16.6976 18.6981 16.6252 18.6483 16.5456 18.6144C16.466 18.5804 16.3806 18.5629 16.2944 18.5629C16.2083 18.5629 16.1229 18.5804 16.0433 18.6144C15.9637 18.6483 15.8913 18.6981 15.8304 18.7609Z" fill="#444444"/>
<path d="M10.2622 13.7026C10.6246 13.7026 10.9185 13.4001 10.9185 13.0269C10.9185 12.6537 10.6246 12.3511 10.2622 12.3511C9.89977 12.3511 9.60596 12.6537 9.60596 13.0269C9.60596 13.4001 9.89977 13.7026 10.2622 13.7026Z" fill="#444444"/>
<path d="M8.25098 11.6321C8.61341 11.6321 8.90723 11.3295 8.90723 10.9563C8.90723 10.5831 8.61341 10.2806 8.25098 10.2806C7.88854 10.2806 7.59473 10.5831 7.59473 10.9563C7.59473 11.3295 7.88854 11.6321 8.25098 11.6321Z" fill="#444444"/>
<path d="M9.64307 18.4809C10.0055 18.4809 10.2993 18.1783 10.2993 17.8051C10.2993 17.4319 10.0055 17.1293 9.64307 17.1293C9.28063 17.1293 8.98682 17.4319 8.98682 17.8051C8.98682 18.1783 9.28063 18.4809 9.64307 18.4809Z" fill="#444444"/>
<path d="M11.6543 20.5515C12.0167 20.5515 12.3105 20.249 12.3105 19.8757C12.3105 19.5025 12.0167 19.2 11.6543 19.2C11.2919 19.2 10.998 19.5025 10.998 19.8757C10.998 20.249 11.2919 20.5515 11.6543 20.5515Z" fill="#444444"/>
<path d="M13.665 22.6221C14.0275 22.6221 14.3213 22.3195 14.3213 21.9463C14.3213 21.5731 14.0275 21.2706 13.665 21.2706C13.3026 21.2706 13.0088 21.5731 13.0088 21.9463C13.0088 22.3195 13.3026 22.6221 13.665 22.6221Z" fill="#444444"/>
<path d="M8.09686 16.2124C8.18864 16.1179 8.25114 15.9975 8.27645 15.8664C8.30177 15.7353 8.28878 15.5995 8.23911 15.476C8.18943 15.3525 8.10532 15.247 7.9974 15.1727C7.88948 15.0985 7.76261 15.0588 7.63281 15.0588C7.50302 15.0588 7.37614 15.0985 7.26822 15.1727C7.1603 15.247 7.07619 15.3525 7.02652 15.476C6.97685 15.5995 6.96385 15.7353 6.98917 15.8664C7.01449 15.9975 7.07699 16.1179 7.16876 16.2124C7.2297 16.2752 7.30205 16.3249 7.38167 16.3589C7.46129 16.3929 7.54663 16.4103 7.63281 16.4103C7.719 16.4103 7.80433 16.3929 7.88396 16.3589C7.96358 16.3249 8.03592 16.2752 8.09686 16.2124Z" fill="#444444"/>
<path d="M5.62158 14.3397C5.98402 14.3397 6.27783 14.0372 6.27783 13.664C6.27783 13.2908 5.98402 12.9882 5.62158 12.9882C5.25915 12.9882 4.96533 13.2908 4.96533 13.664C4.96533 14.0372 5.25915 14.3397 5.62158 14.3397Z" fill="#444444"/>
<path d="M7.16846 21.0293C7.53089 21.0293 7.82471 20.7268 7.82471 20.3536C7.82471 19.9804 7.53089 19.6779 7.16846 19.6779C6.80602 19.6779 6.51221 19.9804 6.51221 20.3536C6.51221 20.7268 6.80602 21.0293 7.16846 21.0293Z" fill="#444444"/>
<path d="M9.1792 23.0999C9.54164 23.0999 9.83545 22.7974 9.83545 22.4242C9.83545 22.051 9.54164 21.7484 9.1792 21.7484C8.81676 21.7484 8.52295 22.051 8.52295 22.4242C8.52295 22.7974 8.81676 23.0999 9.1792 23.0999Z" fill="#444444"/>
<path d="M11.1899 25.1705C11.5524 25.1705 11.8462 24.8679 11.8462 24.4948C11.8462 24.1216 11.5524 23.819 11.1899 23.819C10.8275 23.819 10.5337 24.1216 10.5337 24.4948C10.5337 24.8679 10.8275 25.1705 11.1899 25.1705Z" fill="#444444"/>
<path d="M5.15771 18.9587C5.52015 18.9587 5.81396 18.6561 5.81396 18.283C5.81396 17.9098 5.52015 17.6072 5.15771 17.6072C4.79528 17.6072 4.50146 17.9098 4.50146 18.283C4.50146 18.6561 4.79528 18.9587 5.15771 18.9587Z" fill="#444444"/>
<path d="M3.14697 16.8882C3.50941 16.8882 3.80322 16.5856 3.80322 16.2124C3.80322 15.8392 3.50941 15.5367 3.14697 15.5367C2.78454 15.5367 2.49072 15.8392 2.49072 16.2124C2.49072 16.5856 2.78454 16.8882 3.14697 16.8882Z" fill="#444444"/>
<path d="M4.69336 23.5778C5.0558 23.5778 5.34961 23.2752 5.34961 22.902C5.34961 22.5288 5.0558 22.2262 4.69336 22.2262C4.33092 22.2262 4.03711 22.5288 4.03711 22.902C4.03711 23.2752 4.33092 23.5778 4.69336 23.5778Z" fill="#444444"/>
<path d="M6.24008 24.4947C6.1483 24.5892 6.08579 24.7097 6.06046 24.8407C6.03514 24.9718 6.04813 25.1077 6.0978 25.2312C6.14747 25.3547 6.23158 25.4602 6.3395 25.5345C6.44742 25.6087 6.57431 25.6484 6.7041 25.6484C6.8339 25.6484 6.96078 25.6087 7.0687 25.5345C7.17662 25.4602 7.26073 25.3547 7.3104 25.2312C7.36007 25.1077 7.37306 24.9718 7.34774 24.8407C7.32241 24.7097 7.25991 24.5892 7.16813 24.4947C7.04506 24.368 6.87814 24.2968 6.7041 24.2968C6.53006 24.2968 6.36315 24.368 6.24008 24.4947Z" fill="#444444"/>
<path d="M8.71533 27.7189C9.07777 27.7189 9.37158 27.4163 9.37158 27.0432C9.37158 26.67 9.07777 26.3674 8.71533 26.3674C8.3529 26.3674 8.05908 26.67 8.05908 27.0432C8.05908 27.4163 8.3529 27.7189 8.71533 27.7189Z" fill="#444444"/>
<path d="M2.68262 21.5071C3.04505 21.5071 3.33887 21.2046 3.33887 20.8314C3.33887 20.4581 3.04505 20.1556 2.68262 20.1556C2.32018 20.1556 2.02637 20.4581 2.02637 20.8314C2.02637 21.2046 2.32018 21.5071 2.68262 21.5071Z" fill="#444444"/>
<path d="M0.671875 19.4366C1.03431 19.4366 1.32812 19.134 1.32812 18.7608C1.32812 18.3876 1.03431 18.0851 0.671875 18.0851C0.309438 18.0851 0.015625 18.3876 0.015625 18.7608C0.015625 19.134 0.309438 19.4366 0.671875 19.4366Z" fill="#444444"/>
</svg>
