<svg width="25" height="22" viewBox="0 0 25 22" fill="none" xmlns="http://www.w3.org/2000/svg">
<path d="M17.9688 4.66384e-08C18.9605 -0.000153544 19.9152 0.379055 20.6391 1.06071C21.3631 1.74236 21.8021 2.67542 21.8672 3.67062L21.875 3.92831V7.93519C22.7122 8.10739 23.4703 8.55084 24.033 9.19762C24.5957 9.84441 24.9321 10.6589 24.9906 11.5162L25 11.7849V21.2129C25.0004 21.4092 24.9276 21.5986 24.7961 21.7437C24.6646 21.8887 24.4838 21.979 24.2893 21.9968C24.0949 22.0145 23.9009 21.9584 23.7456 21.8395C23.5902 21.7206 23.4848 21.5475 23.45 21.3543L23.4375 21.2129V17.2846H1.5625V21.2129C1.56286 21.4092 1.49011 21.5986 1.35858 21.7437C1.22705 21.8887 1.04627 21.979 0.851841 21.9968C0.657411 22.0145 0.463423 21.9584 0.308076 21.8395C0.152729 21.7206 0.0472816 21.5475 0.0124999 21.3543L8.14284e-08 21.2129V11.7849C-0.000183711 10.8793 0.310768 10.0015 0.88023 9.29996C1.44969 8.59843 2.24268 8.11631 3.125 7.93519V3.92831C3.12485 2.93096 3.50193 1.9709 4.17975 1.24285C4.85757 0.514799 5.78539 0.0732829 6.775 0.00785685L7.03125 4.66384e-08H17.9688ZM21.0938 9.42795H3.90625C3.32387 9.42794 2.76234 9.64598 2.33108 10.0396C1.89983 10.4332 1.62973 10.9742 1.57344 11.5571L1.5625 11.7849V15.7133H23.4375V11.7849C23.4375 11.1993 23.2207 10.6346 22.8293 10.2009C22.4379 9.76718 21.9 9.49557 21.3203 9.43895L21.0938 9.42795ZM17.9688 1.57133H7.03125C6.44862 1.57135 5.88689 1.78961 5.4556 2.18354C5.0243 2.57747 4.75437 3.11883 4.69844 3.70204L4.6875 3.92831V7.85663H6.25V7.07096C6.25 6.86259 6.33231 6.66276 6.47882 6.51542C6.62534 6.36808 6.82405 6.2853 7.03125 6.2853H10.9375C11.1447 6.2853 11.3434 6.36808 11.4899 6.51542C11.6364 6.66276 11.7188 6.86259 11.7188 7.07096V7.85663H13.2812V7.07096C13.2812 6.86259 13.3636 6.66276 13.5101 6.51542C13.6566 6.36808 13.8553 6.2853 14.0625 6.2853H17.9688C18.176 6.2853 18.3747 6.36808 18.5212 6.51542C18.6677 6.66276 18.75 6.86259 18.75 7.07096V7.85663H20.3125V3.92831C20.3125 3.34264 20.0957 2.77794 19.7043 2.34425C19.3129 1.91056 18.775 1.63894 18.1953 1.58232L17.9688 1.57133Z" fill="#444444"/>
</svg>
