<svg width="26" height="23" viewBox="0 0 26 23" fill="none" xmlns="http://www.w3.org/2000/svg">
<path d="M20.8469 10.919C23.4823 8.62899 23.6981 4.70752 21.3289 2.16016C19.1559 -0.176187 15.5188 -0.573094 12.8617 1.23621C9.96509 -0.739741 5.95978 -0.0718501 3.91552 2.72793C2.03975 5.29697 2.44871 8.81618 4.86737 10.919C1.86212 12.4502 -0.0135404 15.4691 7.36116e-05 18.7527V21.4158C7.36116e-05 21.906 0.411238 22.3035 0.918453 22.3035H24.7958C25.3031 22.3035 25.7142 21.906 25.7142 21.4158V18.7527C25.7278 15.4691 23.8521 12.4502 20.8469 10.919ZM16.5305 1.88688C19.063 1.88418 21.1182 3.86632 21.121 6.31413C21.123 8.05987 20.0647 9.64412 18.4178 10.3606C18.3471 10.3917 18.2764 10.4201 18.2047 10.4494C17.9781 10.5378 17.7443 10.6081 17.5058 10.6598C17.4599 10.6696 17.414 10.6749 17.3672 10.6838C17.1007 10.7332 16.8303 10.7596 16.559 10.7628C16.4368 10.7628 16.3138 10.7539 16.1916 10.7433C16.1457 10.7433 16.0998 10.7433 16.0539 10.7344C15.5319 10.675 15.0242 10.5304 14.5524 10.3065C14.5349 10.2985 14.5147 10.2994 14.4973 10.2923C14.4054 10.2498 14.3136 10.2125 14.2319 10.1645C14.2392 10.1556 14.2438 10.1459 14.2511 10.137C14.6722 9.61395 15.0043 9.02933 15.2347 8.40513L15.2631 8.33054C15.3679 8.03241 15.4493 7.7271 15.5065 7.4171C15.5148 7.37185 15.5212 7.32832 15.5286 7.27953C15.5817 6.96397 15.6096 6.64498 15.6122 6.32526C15.6095 6.00616 15.5816 5.68774 15.5286 5.37276C15.5212 5.32662 15.5148 5.28397 15.5065 5.23518C15.4493 4.92524 15.3679 4.61988 15.2631 4.32174L15.2347 4.24716C15.0043 3.62295 14.6722 3.03834 14.2511 2.5153C14.2438 2.5064 14.2392 2.49668 14.2319 2.48778C14.9296 2.09436 15.7228 1.88694 16.5305 1.88688ZM4.59186 6.32531C4.58535 3.88042 6.63052 1.89333 9.15993 1.88704C10.3456 1.88408 11.4863 2.32571 12.3419 3.11901C12.3952 3.16873 12.4476 3.2184 12.499 3.26989C12.6567 3.42962 12.8021 3.60023 12.9343 3.78029C12.9747 3.83532 13.0114 3.89394 13.0491 3.95074C13.1774 4.14167 13.2901 4.34203 13.3861 4.54992C13.4091 4.60053 13.4265 4.65202 13.4467 4.70258C13.5435 4.93252 13.6197 5.17011 13.6744 5.4127C13.6809 5.43933 13.6827 5.46596 13.6882 5.49348C13.8046 6.04465 13.8046 6.61289 13.6882 7.16406C13.6827 7.19158 13.6808 7.21821 13.6744 7.24484C13.6197 7.48742 13.5435 7.72502 13.4467 7.95496C13.4265 8.00557 13.409 8.05706 13.3861 8.10762C13.29 8.3152 13.1773 8.51524 13.0491 8.70592C13.0114 8.76272 12.9747 8.82133 12.9343 8.87636C12.8022 9.05648 12.6567 9.22703 12.499 9.38676C12.4475 9.43825 12.3952 9.48798 12.3419 9.53765C11.9701 9.88015 11.5414 10.1598 11.0737 10.365C10.9993 10.3978 10.924 10.428 10.8478 10.4537C10.6264 10.5387 10.3986 10.6069 10.1664 10.6579C10.1085 10.6703 10.0488 10.6774 9.99006 10.6872C9.7407 10.7321 9.48785 10.7567 9.23424 10.7609H9.13324C8.87963 10.7567 8.62677 10.7321 8.37742 10.6872C8.31866 10.6774 8.25893 10.6703 8.20108 10.6579C7.96884 10.6069 7.741 10.5387 7.51968 10.4537C7.44343 10.4245 7.36815 10.3943 7.29379 10.365C5.65074 9.64791 4.59396 8.06778 4.59186 6.32531ZM16.5305 20.5281H1.83678V18.7528C1.82333 15.7448 3.78406 13.0591 6.7206 12.0633C8.29702 12.6977 10.0702 12.6977 11.6467 12.0633C11.9533 12.1716 12.2521 12.2994 12.5412 12.4459C12.7322 12.5408 12.9086 12.6491 13.0922 12.7583C13.2116 12.8302 13.3328 12.9004 13.4476 12.9794C13.6249 13.101 13.792 13.2332 13.9564 13.369C14.062 13.4578 14.1667 13.5466 14.2659 13.6353C14.4174 13.7738 14.5597 13.9203 14.6966 14.0703C14.7948 14.1786 14.8903 14.2887 14.9813 14.4023C15.1016 14.5514 15.2164 14.7041 15.3229 14.8612C15.4148 14.9944 15.4965 15.1328 15.5773 15.2713C15.6691 15.424 15.7536 15.5767 15.8307 15.7356C15.9079 15.8945 15.9759 16.0685 16.0419 16.238C16.0998 16.3854 16.1613 16.5319 16.2091 16.6819C16.2734 16.8878 16.3184 17.1008 16.3633 17.3139C16.3909 17.4399 16.4267 17.5633 16.4469 17.6911C16.5013 18.0426 16.5292 18.3974 16.5305 18.7528V20.5281H16.5305ZM23.8775 20.5281H18.3673V18.7528C18.3673 18.4749 18.3508 18.1997 18.325 17.9272C18.3177 17.8474 18.3049 17.7683 18.2957 17.6885C18.2709 17.4923 18.2424 17.2979 18.2038 17.1052C18.1873 17.023 18.1699 16.9404 18.1515 16.8576C18.1074 16.6599 18.0563 16.464 17.9981 16.2699C17.9788 16.206 17.9613 16.1412 17.9412 16.0782C17.684 15.2836 17.3114 14.5284 16.8346 13.8351L16.7987 13.7845C16.6408 13.5578 16.4721 13.3386 16.2927 13.1267L16.2863 13.1187C16.1026 12.8986 15.9033 12.6846 15.6939 12.4822C15.7059 12.4822 15.7188 12.4822 15.7316 12.4822C15.9908 12.5151 16.2517 12.5329 16.5132 12.5355H16.5637C16.8056 12.5335 17.0472 12.5183 17.2874 12.4902C17.3627 12.4813 17.4371 12.468 17.5124 12.4565C17.7077 12.4275 17.9005 12.3899 18.0909 12.3438C18.1451 12.3305 18.2002 12.318 18.2553 12.3029C18.5052 12.2372 18.7505 12.1566 18.99 12.0615C21.9287 13.0563 23.8912 15.7432 23.8775 18.7528V20.5281H23.8775Z" fill="black"/>
</svg>
