<svg width="37" height="42" viewBox="0 0 37 42" fill="none" xmlns="http://www.w3.org/2000/svg">
<path d="M18.457 0C8.27982 0 0 8.27982 0 18.457C0 19.5849 0 28.3096 0 28.4648C0 30.5003 1.65596 32.1562 3.69141 32.1562H5.13352C5.64145 33.5884 7.00916 34.6172 8.61328 34.6172C10.6487 34.6172 12.3047 32.9612 12.3047 30.9258V20.918C12.3047 18.8825 10.6487 17.2266 8.61328 17.2266C7.00916 17.2266 5.64145 18.2554 5.13352 19.6875H3.69141C3.26 19.6875 2.84607 19.7626 2.46094 19.8991V18.457C2.46094 9.63678 9.63678 2.46094 18.457 2.46094C27.2773 2.46094 34.4531 9.63678 34.4531 18.457V19.8991C34.068 19.7626 33.6541 19.6875 33.2227 19.6875H31.7805C31.2726 18.2554 29.9049 17.2266 28.3008 17.2266C26.2653 17.2266 24.6094 18.8825 24.6094 20.918V30.9258C24.6094 32.9612 26.2653 34.6172 28.3008 34.6172C28.6733 34.6172 29.0329 34.5612 29.3722 34.4581C28.9119 35.9726 27.5028 37.0781 25.8398 37.0781H21.9368C21.4289 35.646 20.0612 34.6172 18.457 34.6172C16.4216 34.6172 14.7656 36.2732 14.7656 38.3086C14.7656 40.344 16.4216 42 18.457 42C20.0612 42 21.4289 40.9712 21.9368 39.5391H25.8398C29.2322 39.5391 31.9922 36.7791 31.9922 33.3867V32.1562H33.2227C35.2581 32.1562 36.9141 30.5003 36.9141 28.4648C36.9141 28.3119 36.9141 19.584 36.9141 18.457C36.9141 8.27982 28.6342 0 18.457 0ZM7.38281 20.918C7.38281 20.2395 7.9348 19.6875 8.61328 19.6875C9.29176 19.6875 9.84375 20.2395 9.84375 20.918V30.9258C9.84375 31.6043 9.29176 32.1562 8.61328 32.1562C7.9348 32.1562 7.38281 31.6043 7.38281 30.9258V20.918ZM3.69141 22.1484H4.92188V29.6953H3.69141C3.01293 29.6953 2.46094 29.1433 2.46094 28.4648V23.3789C2.46094 22.7004 3.01293 22.1484 3.69141 22.1484ZM18.457 39.5391C17.7786 39.5391 17.2266 38.9871 17.2266 38.3086C17.2266 37.6301 17.7786 37.0781 18.457 37.0781C19.1355 37.0781 19.6875 37.6301 19.6875 38.3086C19.6875 38.9871 19.1355 39.5391 18.457 39.5391ZM29.5312 30.9258C29.5312 31.6043 28.9793 32.1562 28.3008 32.1562C27.6223 32.1562 27.0703 31.6043 27.0703 30.9258V20.918C27.0703 20.2395 27.6223 19.6875 28.3008 19.6875C28.9793 19.6875 29.5312 20.2395 29.5312 20.918V30.9258ZM34.4531 28.4648C34.4531 29.1433 33.9011 29.6953 33.2227 29.6953H31.9922V22.1484H33.2227C33.9011 22.1484 34.4531 22.7004 34.4531 23.3789V28.4648Z" fill="#F7F7F7"/>
</svg>
