<svg width="20" height="26" viewBox="0 0 20 26" fill="none" xmlns="http://www.w3.org/2000/svg">
<path d="M13.5375 11.8032C14.4739 12.7702 14.9998 14.0802 14.9998 15.4458C14.9998 16.8115 14.4739 18.1214 13.5375 19.0885C12.5984 20.0527 11.3262 20.5942 10 20.5942C8.67377 20.5942 7.40164 20.0527 6.4625 19.0885L13.5375 11.8032ZM2.5 0H17.5C18.163 0 18.7989 0.27122 19.2678 0.753996C19.7366 1.23677 20 1.89156 20 2.5743V23.1687C20 23.8515 19.7366 24.5063 19.2678 24.989C18.7989 25.4718 18.163 25.743 17.5 25.743H2.5C1.83696 25.743 1.20107 25.4718 0.732233 24.989C0.263392 24.5063 0 23.8515 0 23.1687V2.5743C0 1.89156 0.263392 1.23677 0.732233 0.753996C1.20107 0.27122 1.83696 0 2.5 0ZM3.75 2.5743C3.41848 2.5743 3.10054 2.70991 2.86612 2.9513C2.6317 3.19269 2.5 3.52008 2.5 3.86146C2.5 4.20283 2.6317 4.53022 2.86612 4.77161C3.10054 5.013 3.41848 5.14861 3.75 5.14861C4.08152 5.14861 4.39946 5.013 4.63388 4.77161C4.8683 4.53022 5 4.20283 5 3.86146C5 3.52008 4.8683 3.19269 4.63388 2.9513C4.39946 2.70991 4.08152 2.5743 3.75 2.5743ZM7.5 2.5743C7.16848 2.5743 6.85054 2.70991 6.61612 2.9513C6.3817 3.19269 6.25 3.52008 6.25 3.86146C6.25 4.20283 6.3817 4.53022 6.61612 4.77161C6.85054 5.013 7.16848 5.14861 7.5 5.14861C7.83152 5.14861 8.14946 5.013 8.38388 4.77161C8.6183 4.53022 8.75 4.20283 8.75 3.86146C8.75 3.52008 8.6183 3.19269 8.38388 2.9513C8.14946 2.70991 7.83152 2.5743 7.5 2.5743ZM10 7.72291C8.01088 7.72291 6.10322 8.53657 4.6967 9.9849C3.29018 11.4332 2.5 13.3976 2.5 15.4458C2.5 17.4941 3.29018 19.4584 4.6967 20.9067C6.10322 22.3551 8.01088 23.1687 10 23.1687C11.9891 23.1687 13.8968 22.3551 15.3033 20.9067C16.7098 19.4584 17.5 17.4941 17.5 15.4458C17.5 13.3976 16.7098 11.4332 15.3033 9.9849C13.8968 8.53657 11.9891 7.72291 10 7.72291Z" fill="black"/>
</svg>
