<svg width="206" height="43" viewBox="0 0 206 43" fill="none" xmlns="http://www.w3.org/2000/svg">
<path d="M70.6628 32.0127C75.2434 33.6127 78.9912 34.8127 81.4897 35.2127C83.5718 36.0127 85.654 36.0127 87.3196 36.0127C89.4018 36.0127 91.0674 35.6127 93.1496 34.8127L93.566 35.2127C90.651 37.2127 87.7361 38.0127 85.2375 38.0127C82.3226 38.0127 78.9912 37.2127 75.2434 35.2127C72.3284 34.0127 70.6628 33.2127 70.2463 32.8127C67.7478 32.0127 65.6657 31.2127 64 31.2127H64.4164C65.2493 31.2127 65.6657 30.8127 66.0821 30.4127C66.4985 30.0127 66.915 29.6127 66.915 29.2127V11.2127C66.915 10.4127 66.4985 10.0127 66.0821 9.6127C65.6657 9.2127 65.2493 9.2127 64.4164 9.2127H64V8.8127H71.4956V9.2127H71.0792C70.6628 9.2127 69.8299 9.2127 69.4135 9.6127C68.9971 10.0127 68.9971 10.4127 68.9971 11.2127V29.6127C68.9971 30.0127 68.9971 30.4127 68.9971 30.8127L69.4135 31.2127C69.8299 31.6127 70.2463 32.0127 70.6628 32.0127ZM78.1584 31.2127C78.5748 31.2127 79.4076 30.8127 79.824 30.4127C80.2405 30.0127 80.2405 29.6127 80.2405 29.2127V10.8127C80.2405 10.4127 80.2405 10.0127 79.824 9.6127C79.4076 9.2127 78.5748 9.2127 78.1584 9.2127H77.7419V8.8127H87.7361C88.1525 8.8127 88.9853 8.8127 89.8182 8.4127C90.651 8.4127 91.0674 8.4127 91.4839 8.0127V12.0127H91.0674V11.6127C91.0674 11.2127 91.0674 10.8127 90.651 10.4127C90.2346 10.0127 89.8182 9.6127 89.4018 9.6127H82.3226V19.6127H88.1525C88.5689 19.6127 88.9853 19.6127 89.4018 19.2127C89.8182 18.8127 89.8182 18.4127 89.8182 18.0127V17.6127H90.2346V22.8127H89.8182V22.4127C89.8182 22.0127 89.8182 21.6127 89.4018 21.2127C88.9853 20.8127 88.5689 20.8127 88.1525 20.8127H82.3226V30.4127H87.3196C88.9853 30.4127 90.2346 30.0127 91.0674 29.2127C91.9003 28.4127 92.7331 27.6127 93.1496 26.0127H93.566L91.4839 31.2127H77.7419H78.1584ZM97.3138 31.2127C97.7302 31.2127 98.1466 30.8127 98.563 30.4127C98.9795 30.0127 99.3959 29.6127 99.3959 29.2127V10.8127C99.3959 10.4127 99.3959 10.0127 98.563 9.6127C98.1466 9.2127 97.7302 9.2127 97.3138 9.2127H96.8974V8.8127H106.891C107.308 8.8127 108.141 8.8127 108.974 8.4127C109.806 8.4127 110.223 8.4127 110.639 8.0127V12.0127H110.223V11.6127C110.223 11.2127 110.223 10.8127 109.806 10.4127C109.39 10.0127 108.974 9.6127 108.557 9.6127H101.478V19.6127H107.308C107.724 19.6127 108.141 19.6127 108.557 19.2127C108.974 18.8127 108.974 18.4127 108.974 18.0127V17.6127H109.39V22.8127H108.974V22.4127C108.974 22.0127 108.974 21.6127 108.557 21.2127C108.141 20.8127 107.724 20.8127 107.308 20.8127H101.478V30.4127H106.475C108.141 30.4127 109.39 30.0127 110.223 29.2127C111.056 28.4127 111.889 27.6127 112.305 26.0127H112.721L110.639 31.2127H96.8974H97.3138ZM116.469 30.0127C116.053 29.6127 116.053 29.2127 116.053 28.4127C116.053 27.6127 116.469 26.4127 116.886 25.6127C116.886 25.6127 116.886 26.0127 116.886 26.4127C116.886 27.6127 117.302 28.8127 118.135 29.6127C118.968 30.4127 120.217 30.8127 121.466 30.8127C123.132 30.8127 123.965 30.4127 125.214 29.6127C126.047 28.8127 126.463 27.6127 126.463 26.4127C126.463 25.2127 126.047 24.4127 125.214 23.6127L118.551 17.6127C117.302 16.8127 116.886 15.2127 116.886 14.0127C116.886 12.4127 117.302 10.8127 118.551 10.0127C119.384 8.8127 121.05 8.4127 122.716 8.4127C123.548 8.4127 124.381 8.4127 125.63 8.4127H126.88V12.4127H126.463C126.463 11.6127 126.463 10.8127 125.63 10.0127C124.798 9.6127 123.965 9.2127 122.716 9.2127C121.466 9.2127 120.633 9.6127 119.801 10.4127C118.968 11.2127 118.551 12.0127 118.551 13.2127C118.551 14.0127 118.968 15.2127 120.217 16.0127L126.463 22.0127C127.713 22.8127 128.545 24.0127 128.545 26.0127C128.545 27.6127 127.713 29.2127 126.463 30.0127C125.63 31.2127 123.965 32.0127 121.883 32.0127C121.05 32.0127 119.801 31.6127 118.968 31.2127C117.718 31.2127 116.886 30.8127 116.469 30.0127ZM150.199 11.6127C150.199 11.2127 149.783 10.8127 149.783 10.4127C149.367 10.0127 148.95 9.6127 148.117 9.6127H141.871V29.2127C141.871 29.6127 142.287 30.0127 142.704 30.4127C143.12 30.8127 143.537 31.2127 143.953 31.2127H144.369H136.874H137.29C138.123 31.2127 138.54 30.8127 138.956 30.4127C139.372 30.0127 139.789 29.6127 139.789 29.2127V9.6127H133.126C132.71 9.6127 132.293 10.0127 131.877 10.4127C131.46 10.8127 131.46 11.2127 131.46 11.6127V12.0127H131.044V8.0127C131.46 8.4127 131.877 8.4127 132.71 8.4127C133.543 8.4127 134.375 8.8127 135.208 8.8127H146.452C147.701 8.8127 148.534 8.4127 149.367 8.4127C149.783 8.4127 150.199 8.0127 150.616 8.0127V12.0127H150.199V11.6127ZM173.103 31.2127H165.607H166.023C166.44 31.2127 166.856 30.8127 166.856 30.8127C167.273 30.4127 167.273 30.0127 167.273 29.6127V29.2127L165.191 23.6127H156.029L153.531 29.2127C153.531 29.2127 153.531 29.6127 153.531 30.0127C153.531 30.0127 153.531 30.4127 153.947 30.8127C153.947 30.8127 154.364 31.2127 154.78 31.2127H155.196H148.534H148.95C149.367 31.2127 149.783 30.8127 150.616 30.4127C151.032 30.0127 151.449 29.6127 151.865 29.2127L159.361 11.6127C160.194 10.0127 160.61 8.8127 160.61 8.4127H161.026L169.771 29.2127C170.188 29.6127 170.604 30.0127 171.437 30.4127C171.853 30.8127 172.27 31.2127 173.103 31.2127ZM156.446 22.4127H164.774L160.61 12.0127L156.446 22.4127ZM192.258 9.2127H191.842C191.009 9.2127 190.176 9.2127 189.76 9.6127C189.343 10.0127 188.51 10.4127 188.094 10.8127L181.431 21.2127V29.2127C181.431 29.6127 181.848 30.0127 182.264 30.4127C182.68 30.8127 183.097 31.2127 183.93 31.2127H184.346H176.85H177.267C177.683 31.2127 178.516 30.8127 178.933 30.4127C179.349 30.0127 179.349 29.6127 179.349 29.2127V21.2127L173.103 10.8127C172.686 10.4127 172.27 10.0127 171.437 9.6127C171.021 9.2127 170.188 9.2127 169.771 9.2127H168.938V8.8127H177.267V9.2127H176.85C176.434 9.2127 176.018 9.2127 176.018 9.6127C175.601 10.0127 175.601 10.0127 175.601 10.4127C175.601 10.4127 175.601 10.8127 176.018 11.2127L181.015 20.0127L186.428 10.8127V10.4127C186.428 10.0127 186.428 10.0127 186.012 9.6127C186.012 9.2127 185.595 9.2127 185.179 9.2127H184.762V8.8127H192.258V9.2127ZM193.924 30.0127C193.924 29.6127 193.507 29.2127 193.507 28.4127C193.507 27.6127 193.924 26.4127 194.34 25.6127C194.34 25.6127 194.34 26.0127 194.34 26.4127C194.34 27.6127 194.757 28.8127 195.589 29.6127C196.422 30.4127 197.672 30.8127 198.921 30.8127C200.587 30.8127 201.419 30.4127 202.669 29.6127C203.501 28.8127 203.918 27.6127 203.918 26.4127C203.918 25.2127 203.501 24.4127 202.669 23.6127L196.006 17.6127C194.757 16.8127 194.34 15.2127 194.34 14.0127C194.34 12.4127 194.757 10.8127 196.006 10.0127C196.839 8.8127 198.504 8.4127 200.17 8.4127C201.003 8.4127 201.836 8.4127 203.085 8.4127H204.334V12.4127H203.918C203.918 11.6127 203.918 10.8127 203.085 10.0127C202.252 9.6127 201.419 9.2127 200.17 9.2127C198.921 9.2127 198.088 9.6127 197.255 10.4127C196.422 11.2127 196.006 12.0127 196.006 13.2127C196.006 14.0127 196.422 15.2127 197.672 16.0127L204.334 22.0127C205.167 22.8127 206 24.0127 206 26.0127C206 27.6127 205.167 29.2127 203.918 30.0127C203.085 31.2127 201.419 32.0127 199.337 32.0127C198.504 32.0127 197.672 31.6127 196.422 31.2127C195.173 31.2127 194.34 30.8127 193.924 30.0127Z" fill="#F0F0F0"/>
<path fill-rule="evenodd" clip-rule="evenodd" d="M34.9426 34.1856L32.5328 30.2233L30.9262 32.6007H28.918L31.3279 28.2422L24.5 16.7516L22.0902 21.1101H24.9016L25.7049 22.695H21.2869L14.459 34.1856H19.2787L18.0738 31.8082L18.877 30.2233L21.2869 34.1856H34.9426ZM12.4508 34.1856L19.2787 22.695H11.6475L24.5 0.506348L25.7049 2.09125L14.459 21.1101H20.082L28.5164 6.84597L34.9426 18.3365H33.3361L28.5164 10.412L25.7049 15.1667L32.5328 26.6573L36.1475 20.3177L49 42.5063H47.3934L36.1475 23.4875L33.3361 28.2422L41.7705 42.5063H28.1148L29.3197 40.9214H38.5574L35.7459 36.1667H22.0902L26.1066 42.5063H0L1.20492 40.9214H23.2951L20.4836 36.1667H4.01639L10.4426 24.6762L11.6475 26.2611L6.82787 34.1856H12.4508Z" fill="#FFC02E"/>
</svg>
