<?xml version="1.0" encoding="utf-8"?>
<!-- Generator: Adobe Illustrator 24.1.1, SVG Export Plug-In . SVG Version: 6.00 Build 0)  -->
<svg version="1.1" id="Layer_1" xmlns="http://www.w3.org/2000/svg" xmlns:xlink="http://www.w3.org/1999/xlink" x="0px" y="0px"
	 viewBox="0 0 512 512" style="enable-background:new 0 0 512 512;" xml:space="preserve">
<g>
	<path d="M493.3,72.6L334.5,28.2L175.3,73L27.2,31c-1.7-0.5-3.8-0.8-5.8-0.8C9.6,30.2,0,39.7,0,51.5v363.3
		c0,11.6,7.8,21.5,18.4,24.6l0.2,0l156.6,44.4L334.5,439L484.9,481l5.7,0.8c11.8,0,21.3-9.6,21.3-21.3V97.2
		c0-11.7-7.9-21.5-18.5-24.6L493.3,72.6z M156.8,443.2L34.2,408.4V68.5l122.7,34.8V443.2z M317.5,408.3L191,444V104l126.5-35.6
		V408.3z M477.9,443.6l-126.3-35.3V68.4l126.3,35.3V443.6z"/>
</g>
</svg>
