<svg width="26" height="24" viewBox="0 0 26 24" fill="none" xmlns="http://www.w3.org/2000/svg">
<path d="M23.2031 0H2.10938C1.55013 0.000803747 1.01397 0.282207 0.618523 0.782475C0.223076 1.28274 0.000635338 1.96102 0 2.66851V20.8143C0.000635338 21.5218 0.223076 22.2001 0.618523 22.7004C1.01397 23.2006 1.55013 23.482 2.10938 23.4828H23.2031C23.7624 23.482 24.2985 23.2006 24.694 22.7004C25.0894 22.2001 25.3119 21.5218 25.3125 20.8143V2.66851C25.3119 1.96102 25.0894 1.28274 24.694 0.782475C24.2985 0.282207 23.7624 0.000803747 23.2031 0ZM23.2031 22.4154H2.10938C1.77383 22.415 1.45213 22.2461 1.21487 21.946C0.977599 21.6458 0.844134 21.2388 0.84375 20.8143V20.2792C1.20835 20.627 1.65271 20.8149 2.10938 20.8143H3.79688V19.7469H2.10938C1.77383 19.7465 1.45213 19.5776 1.21486 19.2775C0.977593 18.9773 0.844129 18.5703 0.84375 18.1458V17.6107C1.20835 17.9585 1.65271 18.1464 2.10938 18.1458H23.2031C23.6598 18.1464 24.1041 17.9585 24.4688 17.6107V18.1458C24.4684 18.5703 24.3349 18.9773 24.0976 19.2775C23.8604 19.5776 23.5387 19.7465 23.2031 19.7469H16.4531V20.8143H23.2031C23.6598 20.8149 24.1041 20.627 24.4688 20.2792V20.8143C24.4684 21.2388 24.3349 21.6458 24.0976 21.946C23.8604 22.2461 23.5387 22.415 23.2031 22.4154ZM24.4688 15.4773C24.4684 15.9018 24.3349 16.3088 24.0976 16.6089C23.8604 16.9091 23.5387 17.0779 23.2031 17.0784H2.10938C1.77383 17.0779 1.45213 16.9091 1.21487 16.6089C0.977599 16.3088 0.844134 15.9018 0.84375 15.4773V2.66851C0.844134 2.24402 0.977599 1.83705 1.21487 1.53689C1.45213 1.23673 1.77383 1.06789 2.10938 1.0674H23.2031C23.5387 1.06789 23.8604 1.23673 24.0976 1.53689C24.3349 1.83705 24.4684 2.24402 24.4688 2.66851V15.4773Z" fill="black"/>
<path d="M4.64062 19.747H5.48438V20.8145H4.64062V19.747Z" fill="black"/>
<path d="M14.7656 19.747H15.6094V20.8145H14.7656V19.747Z" fill="black"/>
<path d="M4.64062 3.7358V2.6684H3.79688V3.7358C3.79675 3.8773 3.75226 4.01296 3.67317 4.11301C3.59408 4.21307 3.48685 4.26935 3.375 4.26951H2.53125V5.33692H3.375C3.48685 5.33708 3.59408 5.39336 3.67317 5.49341C3.75226 5.59347 3.79675 5.72912 3.79688 5.87062V8.00544C3.79675 8.14693 3.75226 8.28259 3.67317 8.38264C3.59408 8.4827 3.48685 8.53898 3.375 8.53914H2.53125V9.60655H3.375C3.48685 9.60671 3.59408 9.66299 3.67317 9.76305C3.75226 9.8631 3.79675 9.99876 3.79688 10.1403V12.2751C3.79675 12.4166 3.75226 12.5522 3.67317 12.6523C3.59408 12.7523 3.48685 12.8086 3.375 12.8088H2.53125V13.8762H3.375C3.48685 13.8763 3.59408 13.9326 3.67317 14.0327C3.75226 14.1327 3.79675 14.2684 3.79688 14.4099V15.4773H4.64062V14.4099C4.64075 14.2684 4.68524 14.1327 4.76433 14.0327C4.84342 13.9326 4.95065 13.8763 5.0625 13.8762H5.90625V12.8088H5.0625C4.95065 12.8086 4.84342 12.7523 4.76433 12.6523C4.68524 12.5522 4.64075 12.4166 4.64062 12.2751V10.1403C4.64075 9.99876 4.68524 9.8631 4.76433 9.76305C4.84342 9.66299 4.95065 9.60671 5.0625 9.60655H5.90625V8.53914H5.0625C4.95065 8.53898 4.84342 8.4827 4.76433 8.38264C4.68524 8.28259 4.64075 8.14693 4.64062 8.00544V5.87062C4.64075 5.72912 4.68524 5.59347 4.76433 5.49341C4.84342 5.39336 4.95065 5.33708 5.0625 5.33692H5.90625V4.26951H5.0625C4.95065 4.26935 4.84342 4.21307 4.76433 4.11301C4.68524 4.01296 4.64075 3.8773 4.64062 3.7358Z" fill="black"/>
<path d="M8.85938 3.7358V2.6684H8.01562V3.7358C8.0155 3.8773 7.97101 4.01296 7.89192 4.11301C7.81283 4.21307 7.7056 4.26935 7.59375 4.26951H6.75V5.33692H7.59375C7.7056 5.33708 7.81283 5.39336 7.89192 5.49341C7.97101 5.59347 8.0155 5.72912 8.01562 5.87062V8.00544C8.0155 8.14693 7.97101 8.28259 7.89192 8.38264C7.81283 8.4827 7.7056 8.53898 7.59375 8.53914H6.75V9.60655H7.59375C7.7056 9.60671 7.81283 9.66299 7.89192 9.76305C7.97101 9.8631 8.0155 9.99876 8.01562 10.1403V12.2751C8.0155 12.4166 7.97101 12.5522 7.89192 12.6523C7.81283 12.7523 7.7056 12.8086 7.59375 12.8088H6.75V13.8762H7.59375C7.7056 13.8763 7.81283 13.9326 7.89192 14.0327C7.97101 14.1327 8.0155 14.2684 8.01562 14.4099V15.4773H8.85938V14.4099C8.8595 14.2684 8.90399 14.1327 8.98308 14.0327C9.06217 13.9326 9.1694 13.8763 9.28125 13.8762H10.125V12.8088H9.28125C9.1694 12.8086 9.06217 12.7523 8.98308 12.6523C8.90399 12.5522 8.8595 12.4166 8.85938 12.2751V10.1403C8.8595 9.99876 8.90399 9.8631 8.98308 9.76305C9.06217 9.66299 9.1694 9.60671 9.28125 9.60655H10.125V8.53914H9.28125C9.1694 8.53898 9.06217 8.4827 8.98308 8.38264C8.90399 8.28259 8.8595 8.14693 8.85938 8.00544V5.87062C8.8595 5.72912 8.90399 5.59347 8.98308 5.49341C9.06217 5.39336 9.1694 5.33708 9.28125 5.33692H10.125V4.26951H9.28125C9.1694 4.26935 9.06217 4.21307 8.98308 4.11301C8.90399 4.01296 8.8595 3.8773 8.85938 3.7358Z" fill="black"/>
<path d="M13.0781 3.7358V2.6684H12.2344V3.7358C12.2342 3.8773 12.1898 4.01296 12.1107 4.11301C12.0316 4.21307 11.9243 4.26935 11.8125 4.26951H10.9688V5.33692H11.8125C11.9243 5.33708 12.0316 5.39336 12.1107 5.49341C12.1898 5.59347 12.2342 5.72912 12.2344 5.87062V8.00544C12.2342 8.14693 12.1898 8.28259 12.1107 8.38264C12.0316 8.4827 11.9243 8.53898 11.8125 8.53914H10.9688V9.60655H11.8125C11.9243 9.60671 12.0316 9.66299 12.1107 9.76305C12.1898 9.8631 12.2342 9.99876 12.2344 10.1403V12.2751C12.2342 12.4166 12.1898 12.5522 12.1107 12.6523C12.0316 12.7523 11.9243 12.8086 11.8125 12.8088H10.9688V13.8762H11.8125C11.9243 13.8763 12.0316 13.9326 12.1107 14.0327C12.1898 14.1327 12.2342 14.2684 12.2344 14.4099V15.4773H13.0781V14.4099C13.0783 14.2684 13.1227 14.1327 13.2018 14.0327C13.2809 13.9326 13.3882 13.8763 13.5 13.8762H14.3438V12.8088H13.5C13.3882 12.8086 13.2809 12.7523 13.2018 12.6523C13.1227 12.5522 13.0783 12.4166 13.0781 12.2751V10.1403C13.0783 9.99876 13.1227 9.8631 13.2018 9.76305C13.2809 9.66299 13.3882 9.60671 13.5 9.60655H14.3438V8.53914H13.5C13.3882 8.53898 13.2809 8.4827 13.2018 8.38264C13.1227 8.28259 13.0783 8.14693 13.0781 8.00544V5.87062C13.0783 5.72912 13.1227 5.59347 13.2018 5.49341C13.2809 5.39336 13.3882 5.33708 13.5 5.33692H14.3438V4.26951H13.5C13.3882 4.26935 13.2809 4.21307 13.2018 4.11301C13.1227 4.01296 13.0783 3.8773 13.0781 3.7358Z" fill="black"/>
<path d="M17.2969 3.7358V2.6684H16.4531V3.7358C16.453 3.8773 16.4085 4.01296 16.3294 4.11301C16.2503 4.21307 16.1431 4.26935 16.0312 4.26951H15.1875V5.33692H16.0312C16.1431 5.33708 16.2503 5.39336 16.3294 5.49341C16.4085 5.59347 16.453 5.72912 16.4531 5.87062V8.00544C16.453 8.14693 16.4085 8.28259 16.3294 8.38264C16.2503 8.4827 16.1431 8.53898 16.0312 8.53914H15.1875V9.60655H16.0312C16.1431 9.60671 16.2503 9.66299 16.3294 9.76305C16.4085 9.8631 16.453 9.99876 16.4531 10.1403V12.2751C16.453 12.4166 16.4085 12.5522 16.3294 12.6523C16.2503 12.7523 16.1431 12.8086 16.0312 12.8088H15.1875V13.8762H16.0312C16.1431 13.8763 16.2503 13.9326 16.3294 14.0327C16.4085 14.1327 16.453 14.2684 16.4531 14.4099V15.4773H17.2969V14.4099C17.297 14.2684 17.3415 14.1327 17.4206 14.0327C17.4997 13.9326 17.6069 13.8763 17.7188 13.8762H18.5625V12.8088H17.7188C17.6069 12.8086 17.4997 12.7523 17.4206 12.6523C17.3415 12.5522 17.297 12.4166 17.2969 12.2751V10.1403C17.297 9.99876 17.3415 9.8631 17.4206 9.76305C17.4997 9.66299 17.6069 9.60671 17.7188 9.60655H18.5625V8.53914H17.7188C17.6069 8.53898 17.4997 8.4827 17.4206 8.38264C17.3415 8.28259 17.297 8.14693 17.2969 8.00544V5.87062C17.297 5.72912 17.3415 5.59347 17.4206 5.49341C17.4997 5.39336 17.6069 5.33708 17.7188 5.33692H18.5625V4.26951H17.7188C17.6069 4.26935 17.4997 4.21307 17.4206 4.11301C17.3415 4.01296 17.297 3.8773 17.2969 3.7358Z" fill="black"/>
<path d="M21.5156 3.7358V2.6684H20.6719V3.7358C20.6717 3.8773 20.6273 4.01296 20.5482 4.11301C20.4691 4.21307 20.3618 4.26935 20.25 4.26951H19.4062V5.33692H20.25C20.3618 5.33708 20.4691 5.39336 20.5482 5.49341C20.6273 5.59347 20.6717 5.72912 20.6719 5.87062V8.00544C20.6717 8.14693 20.6273 8.28259 20.5482 8.38264C20.4691 8.4827 20.3618 8.53898 20.25 8.53914H19.4062V9.60655H20.25C20.3618 9.60671 20.4691 9.66299 20.5482 9.76305C20.6273 9.8631 20.6717 9.99876 20.6719 10.1403V12.2751C20.6717 12.4166 20.6273 12.5522 20.5482 12.6523C20.4691 12.7523 20.3618 12.8086 20.25 12.8088H19.4062V13.8762H20.25C20.3618 13.8763 20.4691 13.9326 20.5482 14.0327C20.6273 14.1327 20.6717 14.2684 20.6719 14.4099V15.4773H21.5156V14.4099C21.5158 14.2684 21.5602 14.1327 21.6393 14.0327C21.7184 13.9326 21.8257 13.8763 21.9375 13.8762H22.7812V12.8088H21.9375C21.8257 12.8086 21.7184 12.7523 21.6393 12.6523C21.5602 12.5522 21.5158 12.4166 21.5156 12.2751V10.1403C21.5158 9.99876 21.5602 9.8631 21.6393 9.76305C21.7184 9.66299 21.8257 9.60671 21.9375 9.60655H22.7812V8.53914H21.9375C21.8257 8.53898 21.7184 8.4827 21.6393 8.38264C21.5602 8.28259 21.5158 8.14693 21.5156 8.00544V5.87062C21.5158 5.72912 21.5602 5.59347 21.6393 5.49341C21.7184 5.39336 21.8257 5.33708 21.9375 5.33692H22.7812V4.26951H21.9375C21.8257 4.26935 21.7184 4.21307 21.6393 4.11301C21.5602 4.01296 21.5158 3.8773 21.5156 3.7358Z" fill="black"/>
</svg>
