<svg width="47" height="47" viewBox="0 0 47 47" fill="none" xmlns="http://www.w3.org/2000/svg">
<line x1="1.5" y1="27" x2="45.5" y2="27" stroke="black" stroke-width="3" stroke-linecap="round"/>
<path d="M8.92593 40.9714C4.58025 39.1086 3.16461 31.6571 3 28.1643L43 27C42.8354 29.3286 42.3086 34.4514 41.5185 36.3143C40.7284 38.1771 37.2387 40.1952 35.5926 40.9714C28.5144 41.7476 13.2716 42.8343 8.92593 40.9714Z" stroke="black" stroke-width="2"/>
<ellipse cx="6.5" cy="43" rx="2.5" ry="3.5" transform="rotate(12.019 6.5 43)" fill="black"/>
<ellipse cx="38.9151" cy="42.2811" rx="2.5" ry="3.5" transform="rotate(161.447 38.9151 42.2811)" fill="black"/>
<path d="M21 12.5C24.6 13.7 24.5 18.3333 24 20.5C25.6667 17.1667 28.3 10.5 25.5 10.5C22.7 10.5 22.3333 3.5 22.5 0C20.5 3.66667 17.4 11.3 21 12.5Z" fill="black"/>
<path d="M10.3452 15.8659C13.2703 16.861 13.1891 20.7033 12.7828 22.5C14.137 19.7358 16.2767 14.2073 14.0016 14.2073C11.7265 14.2073 11.4286 8.40244 11.564 5.5C9.93893 8.54065 7.42007 14.8707 10.3452 15.8659Z" fill="black"/>
<path d="M33.3452 15.2561C36.2703 16.1927 36.1891 19.8089 35.7828 21.5C37.137 18.8984 39.2767 13.6951 37.0016 13.6951C34.7265 13.6951 34.4286 8.23171 34.564 5.5C32.9389 8.36179 30.4201 14.3195 33.3452 15.2561Z" fill="black"/>
</svg>
