<svg width="26" height="25" viewBox="0 0 26 25" fill="none" xmlns="http://www.w3.org/2000/svg">
<path d="M8.70367 0.287231C7.06802 0.287231 5.73337 1.66154 5.73337 3.34578V16.2172L6.72347 15.4841L7.71357 16.2172V3.34578C7.71357 2.78505 8.15911 2.32626 8.70367 2.32626H9.69377V0.287231H8.70367ZM20.5849 0.287231C18.9492 0.287231 17.6146 1.66154 17.6146 3.34578V4.3653H8.70367V6.40433H17.6146V8.44336H8.70367V10.4824H17.6146V12.5214H8.70367V14.5605H17.6146V16.2172L18.6047 15.4841L19.5948 16.2172V3.34578C19.5948 2.78505 20.0403 2.32626 20.5849 2.32626H21.575V0.287231H20.5849ZM6.72347 17.3325L6.10466 17.8423C6.10466 17.8423 5.1106 18.6385 3.78386 18.6385C2.45713 18.6385 1.40169 17.8423 1.40169 17.8423L0.164062 19.4348C0.164062 19.4348 1.69179 20.6776 3.78386 20.6776C5.2304 20.6776 6.1502 20.1841 6.72347 19.8171C7.29971 20.18 8.26703 20.6776 9.72446 20.6776C11.171 20.6776 12.0908 20.1841 12.6641 19.8171C13.2403 20.18 14.2076 20.6776 15.6651 20.6776C17.1116 20.6776 18.0314 20.1841 18.6047 19.8171C19.1809 20.18 20.1482 20.6776 21.6056 20.6776C23.6987 20.6776 25.1641 19.4348 25.1641 19.4348L23.9264 17.8423C23.9264 17.8423 22.9324 18.6385 21.6056 18.6385C20.2789 18.6385 19.2235 17.8423 19.2235 17.8423L18.6047 17.3325L17.9858 17.8423C17.9858 17.8423 16.9918 18.6385 15.6651 18.6385C14.3383 18.6385 13.2829 17.8423 13.2829 17.8423L12.6641 17.3325L12.0453 17.8423C12.0453 17.8423 11.0512 18.6385 9.72446 18.6385C8.39773 18.6385 7.34228 17.8423 7.34228 17.8423L6.72347 17.3325ZM6.72347 21.4106L6.10466 21.9203C6.10466 21.9203 5.1106 22.7166 3.78386 22.7166C2.45713 22.7166 1.40169 21.9203 1.40169 21.9203L0.164062 23.5128C0.164062 23.5128 1.69179 24.7556 3.78386 24.7556C5.2304 24.7556 6.1502 24.2622 6.72347 23.8951C7.29971 24.2581 8.26703 24.7556 9.72446 24.7556C11.171 24.7556 12.0908 24.2622 12.6641 23.8951C13.2403 24.2581 14.2076 24.7556 15.6651 24.7556C17.1116 24.7556 18.0314 24.2622 18.6047 23.8951C19.1809 24.2581 20.1482 24.7556 21.6056 24.7556C23.6987 24.7556 25.1641 23.5128 25.1641 23.5128L23.9264 21.9203C23.9264 21.9203 22.9324 22.7166 21.6056 22.7166C20.2789 22.7166 19.2235 21.9203 19.2235 21.9203L18.6047 21.4106L17.9858 21.9203C17.9858 21.9203 16.9918 22.7166 15.6651 22.7166C14.3383 22.7166 13.2829 21.9203 13.2829 21.9203L12.6641 21.4106L12.0453 21.9203C12.0453 21.9203 11.0512 22.7166 9.72446 22.7166C8.39773 22.7166 7.34228 21.9203 7.34228 21.9203L6.72347 21.4106Z" fill="black"/>
</svg>
