<svg width="30" height="24" viewBox="0 0 30 24" fill="none" xmlns="http://www.w3.org/2000/svg">
<path d="M4.6875 22.7124C4.6875 22.4608 4.78627 22.2195 4.96209 22.0416C5.1379 21.8637 5.37636 21.7637 5.625 21.7637H24.375C24.6236 21.7637 24.8621 21.8637 25.0379 22.0416C25.2137 22.2195 25.3125 22.4608 25.3125 22.7124C25.3125 22.964 25.2137 23.2053 25.0379 23.3833C24.8621 23.5612 24.6236 23.6611 24.375 23.6611H5.625C5.37636 23.6611 5.1379 23.5612 4.96209 23.3833C4.78627 23.2053 4.6875 22.964 4.6875 22.7124ZM26.2331 2.78951L26.2781 2.79141C26.6285 2.81554 26.9709 2.90766 27.2869 3.06274C27.5144 3.1699 27.7098 3.3362 27.8531 3.54468C27.9787 3.73443 28.125 4.07027 28.125 4.68693V16.0544L28.1231 16.0999C28.0991 16.4544 28.0081 16.8009 27.855 17.1207C27.749 17.3509 27.5847 17.5486 27.3788 17.6937C27.1913 17.8209 26.8594 17.9689 26.25 17.9689H3.76688L3.72188 17.967C3.37157 17.9427 3.02913 17.8505 2.71313 17.6956C2.48564 17.5884 2.29027 17.4221 2.14687 17.2137C2.02125 17.024 1.875 16.6881 1.875 16.0715V4.70401L1.87688 4.65847C1.90073 4.30395 1.99175 3.95738 2.145 3.63766C2.25097 3.40745 2.41529 3.20974 2.62125 3.06464C2.80875 2.93751 3.14063 2.78951 3.75 2.78951H26.2331ZM26.25 0.89209H3.75C0 0.89209 0 4.68693 0 4.68693V16.0715C0 19.8663 3.75 19.8663 3.75 19.8663H26.25C30 19.8663 30 16.0715 30 16.0715V4.68693C30 0.89209 26.25 0.89209 26.25 0.89209Z" fill="black"/>
</svg>
