<svg width="27" height="21" viewBox="0 0 27 21" fill="none" xmlns="http://www.w3.org/2000/svg">
<path d="M19.2975 13.8924C17.6511 12.4426 15.5007 11.5651 13.1452 11.5651C10.7897 11.5651 8.63934 12.4426 6.98993 13.8953C6.94438 13.9369 6.9165 13.9947 6.91213 14.0566C6.90776 14.1185 6.92724 14.1797 6.96649 14.2274L8.02118 15.4993C8.10614 15.6001 8.25555 15.6119 8.35516 15.5259C9.63251 14.3875 11.3083 13.6997 13.1452 13.6997C14.9821 13.6997 16.6579 14.3875 17.9352 15.523C18.0349 15.6089 18.1843 15.5971 18.2692 15.4963L19.3239 14.2244C19.4059 14.1266 19.3942 13.9784 19.2975 13.8924ZM22.737 9.73881C20.1384 7.54788 16.7956 6.22858 13.1452 6.22858C9.49481 6.22858 6.15204 7.54788 3.55047 9.73881C3.50288 9.77943 3.47309 9.83745 3.4676 9.90021C3.46212 9.96296 3.48137 10.0254 3.52118 10.0738L4.57586 11.3457C4.6579 11.4465 4.80731 11.4583 4.90399 11.3753C7.13934 9.4957 10.0134 8.36318 13.1452 8.36318C16.277 8.36318 19.1511 9.4957 21.3835 11.3753C21.4831 11.4583 21.6296 11.4465 21.7116 11.3457L22.7663 10.0738C22.8483 9.97302 22.8366 9.82182 22.737 9.73881V9.73881ZM26.1559 5.61785C22.5993 2.66499 18.0466 0.89209 13.0866 0.89209C8.15887 0.89209 3.63543 2.64127 0.0875819 5.55856C0.0632071 5.57837 0.0429969 5.60293 0.0281417 5.63077C0.0132865 5.65861 0.00408659 5.68918 0.00108354 5.72067C-0.00191951 5.75217 0.00133507 5.78395 0.0106557 5.81415C0.0199763 5.84436 0.0351744 5.87237 0.0553551 5.89653L1.11004 7.1684C1.19207 7.26623 1.33856 7.28106 1.43524 7.20101C4.61981 4.58909 8.67157 3.02669 13.0866 3.02669C17.5339 3.02669 21.612 4.61281 24.8054 7.25734C24.905 7.34035 25.0515 7.32553 25.1335 7.22473L26.1882 5.95286C26.2731 5.85206 26.2585 5.70086 26.1559 5.61785ZM11.2409 18.5618C11.2409 19.065 11.4384 19.5477 11.7901 19.9035C12.1417 20.2593 12.6186 20.4592 13.1159 20.4592C13.6132 20.4592 14.0901 20.2593 14.4417 19.9035C14.7934 19.5477 14.9909 19.065 14.9909 18.5618C14.9909 18.0586 14.7934 17.576 14.4417 17.2201C14.0901 16.8643 13.6132 16.6644 13.1159 16.6644C12.6186 16.6644 12.1417 16.8643 11.7901 17.2201C11.4384 17.576 11.2409 18.0586 11.2409 18.5618Z" fill="black"/>
</svg>
